Coordinates
version=1
nRows=27
nColumns=26
inDegrees=yes

Units are S.I. units (second, meters, Newtons, ...)
Angles are in degrees.

endheader
time	pelvis_tilt	pelvis_list	pelvis_rotation	pelvis_tx	pelvis_ty	pelvis_tz	hip_flexion_r	hip_adduction_r	hip_rotation_r	knee_angle_r	knee_angle_r_beta	ankle_angle_r	subtalar_angle_r	mtp_angle_r	hip_flexion_l	hip_adduction_l	hip_rotation_l	knee_angle_l	knee_angle_l_beta	ankle_angle_l	subtalar_angle_l	mtp_angle_l	lumbar_extension	lumbar_bending	lumbar_rotation
    216.72870750	    -20.02951606	     -5.05866491	     13.21933134	     -0.10629073	      0.92550861	      0.12475977	     48.00981619	     -2.66619169	     -6.04697930	     22.88486859	     22.88486859	     -1.94864696	     -6.61995776	      0.00000000	     -6.46404352	     -2.29292668	     13.34338555	     16.81386434	     16.81386434	    -24.86250121	     -0.78773441	      0.00000000	      9.15569016	      2.66922999	    -20.39770181
    216.73870750	    -19.17912803	     -4.13533688	     13.87331568	     -0.10502320	      0.92696502	      0.12333715	     45.50658374	     -3.42101294	     -6.74134607	     17.67890843	     17.67890843	     -0.47737381	     -3.98479912	      0.00000000	     -7.22113594	     -1.27455456	     15.18596976	     21.40696269	     21.40696269	    -23.14608762	     -0.10658112	      0.00000000	      7.98166497	      1.76718017	    -20.84717210
    216.74870750	    -18.53336125	     -3.09939208	     13.77615548	     -0.10386313	      0.92704174	      0.12270563	     43.51127234	     -3.76676240	     -6.56015610	     13.58813616	     13.58813616	      0.74919442	     -1.39608659	      0.00000000	     -7.62352478	      0.09647909	     16.03393247	     26.43214847	     26.43214847	    -22.02008892	      0.17985759	      0.00000000	      7.03113403	      0.85752802	    -20.38306264
    216.75870750	    -17.58558198	     -3.17873407	     13.78414629	     -0.10262025	      0.92618056	      0.12236868	     41.54068590	     -3.30664502	     -8.07982174	     10.51061910	     10.51061910	      1.56345339	      1.99369150	      0.00000000	     -7.51018319	      0.04184181	     15.80080498	     32.41843357	     32.41843357	    -20.08484155	      2.06625725	      0.00000000	      6.09712775	      1.34771188	    -19.97259477
    216.76870750	    -16.97402711	     -3.08427552	     13.18067167	     -0.10200927	      0.92398843	      0.12263110	     40.20262871	     -2.65374530	     -8.58070113	      8.50523793	      8.50523793	      2.38642222	      5.08299952	      0.00000000	     -7.01864292	      0.47772445	     15.33276226	     38.51954257	     38.51954257	    -18.60268643	      2.66528273	      0.00000000	      5.39559010	      1.69188191	    -18.76831504
    216.77870750	    -16.41252391	     -3.14685401	     12.27345472	     -0.10159062	      0.92077243	      0.12326982	     39.02965557	     -1.64919900	     -8.75735768	      7.25880170	      7.25880170	      3.04527896	      7.20445910	      0.00000000	     -6.25806985	      0.77381545	     14.40232648	     44.82818056	     44.82818056	    -17.23781000	      2.84883847	      0.00000000	      4.74147116	      2.18696429	    -17.39193464
    216.78870750	    -15.77170342	     -3.15849632	     11.23743760	     -0.10138034	      0.91674180	      0.12373527	     37.97124706	     -0.64228306	     -8.71683390	      7.07071045	      7.07071045	      3.66090154	      8.17477937	      0.00000000	     -5.48123981	      1.06714955	     13.13894277	     51.09637935	     51.09637935	    -16.27006524	      2.44142705	      0.00000000	      3.93830827	      2.65114162	    -15.92941555
    216.79870750	    -14.76309600	     -2.71035504	     10.42449127	     -0.10126090	      0.91267084	      0.12349116	     36.46867165	     -0.18691519	     -8.29917005	      7.58917077	      7.58917077	      4.20688591	      8.31006036	      0.00000000	     -5.16246564	      1.81653228	     12.20941806	     57.03156634	     57.03156634	    -15.96189006	      1.61794750	      0.00000000	      2.60600399	      2.60973116	    -14.85705962
    216.80870750	    -15.00468301	     -3.16706674	      9.17123597	     -0.10193487	      0.90538850	      0.12404068	     36.83869581	      1.08206616	     -7.46734949	      9.37698140	      9.37698140	      4.34946531	      6.61978151	      0.00000000	     -2.97730065	      1.48208812	     10.18096956	     63.61934275	     63.61934275	    -14.73095940	      0.37438471	      0.00000000	      2.99862822	      3.46813264	    -13.07687208
    216.81870750	    -14.76161166	     -3.30058303	      8.06739228	     -0.10264118	      0.89814951	      0.12443998	     36.36429663	      2.06432255	     -5.99005173	     11.18961971	     11.18961971	      4.36794635	      4.95600520	      0.00000000	     -1.42182127	      1.20760431	      8.23967028	     69.70109015	     69.70109015	    -14.04236630	     -1.43177674	      0.00000000	      2.65876218	      3.98314410	    -11.42113320
    216.82870750	    -14.04735864	     -3.56029492	      7.23120149	     -0.10309299	      0.89073633	      0.12466897	     35.43564650	      2.96280540	     -5.38526489	     13.65041775	     13.65041775	      4.31129694	      3.90956309	      0.00000000	     -0.37639080	      0.47718239	      6.46294827	     75.48899113	     75.48899113	    -12.97236502	     -3.44115602	      0.00000000	      1.72160413	      4.65268182	    -10.09113640
    216.83870750	    -14.73383079	     -4.13904673	      6.38190321	     -0.10471988	      0.88090554	      0.12559870	     36.20508193	      4.11560259	     -4.26334304	     16.54800613	     16.54800613	      1.28901135	      0.16567785	      0.00000000	      2.63410780	     -0.71380764	      4.75668606	     81.67845508	     81.67845508	    -11.96520666	     -5.34083475	      0.00000000	      2.40079778	      5.44252869	     -8.55376326
    216.84870750	    -15.31374008	     -5.33434541	      5.54859317	     -0.10679497	      0.87084252	      0.12754685	     36.87487735	      6.27522283	     -2.91722575	     19.72413734	     19.72413734	      0.48024187	     -4.80839626	      0.00000000	      5.77085630	     -2.99886071	      3.25140257	     87.76909296	     87.76909296	    -10.77516465	     -7.00842911	      0.00000000	      2.88466368	      6.89521280	     -6.94252636
    216.85870750	    -16.63000317	     -6.51102148	      4.58660843	     -0.11094571	      0.85971689	      0.13008536	     39.57746852	      8.56164631	     -2.47847878	     25.74098921	     25.74098921	      4.45994432	     -8.73756681	      0.00000000	     10.20129374	     -5.34325185	      2.19658743	     94.05946407	     94.05946407	     -9.65209272	     -8.32637448	      0.00000000	      3.90940088	      8.26490722	     -5.12775901
    216.86870750	    -17.72320803	     -6.96744545	      3.80665696	     -0.11623607	      0.84911363	      0.13164365	     43.12236070	      9.66909912	     -3.02998234	     33.90044178	     33.90044178	      8.71382459	     -9.87609924	      0.00000000	     14.66679190	     -6.59579554	      1.79444599	     99.97174025	     99.97174025	     -8.73406713	     -9.62139336	      0.00000000	      4.34573966	      8.89753507	     -3.32998598
    216.87870750	    -17.40116884	     -7.38845954	      3.16620017	     -0.12079327	      0.84161948	      0.13292945	     43.94524848	     10.83490170	     -2.79704185	     39.97731151	     39.97731151	     12.02650412	    -10.29747727	      0.00000000	     17.66190738	     -7.75378785	      1.81311630	    104.93843907	    104.93843907	     -7.92499762	    -10.47585339	      0.00000000	      2.92322400	      9.51777841	     -1.53673659
    216.88870750	    -16.46552713	     -7.65028624	      2.67220196	     -0.12497026	      0.83680857	      0.13407593	     42.57022738	     11.90813397	     -2.05613052	     43.49662328	     43.49662328	     14.95808824	    -10.99414995	      0.00000000	     20.21479496	     -8.50306060	      2.28210436	    109.04632216	    109.04632216	     -7.32933696	    -11.09710515	      0.00000000	      0.69245574	      9.84753570	     -0.13342277
    216.89870750	    -16.24054328	     -7.62554635	      1.73041207	     -0.12929289	      0.83289970	      0.13504956	     40.92475363	     12.68343487	     -1.17994824	     45.43567900	     45.43567900	     18.48871287	     -9.33719765	      0.00000000	     23.73721885	     -8.89377467	      2.48074308	    112.52170719	    112.52170719	     -6.25627343	    -10.77320412	      0.00000000	     -0.64783808	      9.96718026	      1.99879878
    216.90870750	    -16.40747940	     -7.77283333	      1.28809154	     -0.13331370	      0.83005729	      0.13512542	     39.10745623	     13.12343402	     -1.10724304	     46.20698439	     46.20698439	     21.32296163	     -7.99200474	      0.00000000	     28.08350313	     -9.16840511	      3.33094006	    115.32330294	    115.32330294	     -5.25549001	    -10.24747355	      0.00000000	     -1.17841607	     10.34227409	      3.38659577
    216.91870750	    -16.70361064	     -7.90851932	      1.06725901	     -0.13614680	      0.82854505	      0.13474221	     36.97215638	     13.41666456	     -1.02267836	     46.26589379	     46.26589379	     23.57417034	     -7.02210457	      0.00000000	     32.50371717	     -9.12728875	      4.38101851	    117.16591733	    117.16591733	     -4.21094268	    -10.02247105	      0.00000000	     -1.15059522	     10.67446361	      4.68643950
    216.92870750	    -17.14571773	     -7.84649584	      1.04942910	     -0.13808915	      0.82857464	      0.13418650	     34.56348424	     13.40472904	     -0.76639766	     45.65382753	     45.65382753	     25.20528678	     -5.94665287	      0.00000000	     36.92066940	     -8.71688045	      5.31758572	    117.98341665	    117.98341665	     -3.13887215	     -9.92012954	      0.00000000	     -0.66653723	     10.61289840	      6.01654072
    216.93870750	    -17.59894087	     -7.52868930	      1.01065822	     -0.13914368	      0.83044331	      0.13388184	     31.61237588	     13.24067392	      0.06819516	     44.03800736	     44.03800736	     26.09149394	     -5.23835944	      0.00000000	     41.01068417	     -8.02924415	      5.80541810	    117.70116427	    117.70116427	     -2.30278252	    -10.19513767	      0.00000000	     -0.02232626	     10.08410769	      7.64361337
    216.94870750	    -18.17782709	     -6.94352620	      1.21269728	     -0.13961308	      0.83370902	      0.13350740	     28.48964801	     12.60989224	      0.72267614	     41.73750538	     41.73750538	     25.94478714	     -4.61247160	      0.00000000	     44.93695046	     -6.80992721	      6.11021328	    116.49248192	    116.49248192	     -1.45509400	    -10.50136448	      0.00000000	      0.92139886	      9.09130567	      9.28780613
    216.95870750	    -18.30798514	     -5.94525578	      0.81788708	     -0.13890970	      0.83921473	      0.13424749	     24.40299926	     12.06924213	      2.68854829	     38.63695985	     38.63695985	     24.98409563	     -4.67331649	      0.00000000	     47.59303778	     -5.86812529	      5.30316616	    114.11696163	    114.11696163	     -0.80266473	    -11.44064540	      0.00000000	      1.35748561	      7.57630114	     11.92438002
    216.96870750	    -19.14719969	     -4.92476162	      0.82396647	     -0.13842303	      0.84471984	      0.13437912	     21.29972949	     10.94959967	      3.45547071	     35.49467841	     35.49467841	     22.92057451	     -3.77713636	      0.00000000	     50.83804494	     -4.47077166	      4.79909940	    111.18411210	    111.18411210	      0.03623137	    -11.86065986	      0.00000000	      2.77572226	      5.99608301	     13.81329411
    216.97870750	    -18.65738724	     -2.66889643	      0.30518199	     -0.13605051	      0.85335689	      0.13523287	     16.59253325	      8.86747874	      5.53939611	     32.12443618	     32.12443618	     19.24072951	     -4.96002879	      0.00000000	     51.51002968	     -2.76350059	      2.55181871	    106.83806359	    106.83806359	      0.31699108	    -13.64513582	      0.00000000	      2.73241004	      2.93092655	     16.65430753
    216.98870750	    -18.38617842	     -0.86062900	      0.23657325	     -0.13333147	      0.86207976	      0.13556997	     12.26262868	      6.81416582	      6.41964706	     28.45950684	     28.45950684	     14.71800424	     -5.15556152	      0.00000000	     52.19776866	     -1.03912997	      1.09353713	    101.99071224	    101.99071224	      0.50100309	    -15.16437803	      0.00000000	      3.05774548	      0.41319934	     18.64440782
